<svg xmlns="http://www.w3.org/2000/svg" xmlns:xlink="http://www.w3.org/1999/xlink" viewBox="55 230 665 308" preserveAspectRatio="xMidYMid meet">
  <defs>
    <clipPath id="li-clip1">
      <rect x="0" width="121" y="0" height="420" />
    </clipPath>
    <clipPath id="li-clip2">
      <rect x="0" width="120" y="0" height="394" />
    </clipPath>
    <clipPath clipPathUnits="userSpaceOnUse" id="li-clip3">
      <rect x="0" width="593" y="0" height="516" />
    </clipPath>
  </defs>
  <!-- a glyph -->
  <g fill="#0b1215" fill-opacity="1" transform="translate(50,127)" clip-path="url(#li-clip3)">
    <g transform="translate(1.083998,396.15199)">
      <path d="m 171.875,0 v -189.21875 h 48.09375 V 0 Z M 109.20313,6.3125 C 91.328125,6.3125 75.03125,1.84375 60.3125,-7.09375 45.59375,-16.03125 33.960938,-28.1875 25.421875,-43.5625 c -8.542969,-15.375 -12.8125,-32.390625 -12.8125,-51.046875 0,-18.925785 4.269531,-36.007815 12.8125,-51.249995 8.539063,-15.23829 20.171875,-27.32813 34.890625,-36.26563 14.71875,-8.9375 31.015625,-13.40625 48.89063,-13.40625 17.60156,0 33.49999,4.46875 47.68749,13.40625 14.19532,8.9375 25.5,21.02734 33.90625,36.26563 8.41407,15.24218 12.625,32.32421 12.625,51.249995 0,18.65625 -4.21093,35.671875 -12.625,51.046875 -8.40625,15.375 -19.71093,27.53125 -33.90625,36.46875 -14.1875,8.9375 -30.08593,13.40625 -47.68749,13.40625 z m 7.48437,-46.515625 c 10.25,0 19.51562,-2.429687 27.79687,-7.296875 8.28125,-4.863281 14.84766,-11.367188 19.70313,-19.515625 4.86328,-8.144531 7.29687,-17.34375 7.29687,-27.59375 0,-10.250005 -2.43359,-19.515625 -7.29687,-27.796875 -4.85547,-8.28125 -11.42188,-14.78516 -19.70313,-19.51562 -8.28125,-4.72657 -17.54687,-7.09375 -27.79687,-7.09375 -10.25,0 -19.515625,2.43359 -27.796875,7.29687 -8.273437,4.86719 -14.839844,11.37109 -19.703125,19.51562 -4.867188,8.14844 -7.296875,17.34375 -7.296875,27.593755 0,9.992187 2.429687,19.125 7.296875,27.40625 4.863281,8.273437 11.429688,14.839844 19.703125,19.703125 8.28125,4.867188 17.546875,7.296875 27.796875,7.296875 z m 0,0" />
    </g>
  </g>
  <!-- i glyph -->
  <path fill="#0b1215" fill-opacity="1" d="M 323.86553,523.15199 V 333.93324 h 48.5 V 523.15199 Z M 347.9124,302.38637 c -7.88671,0 -14.58984,-2.82032 -20.10937,-8.46875 -5.52344,-5.65625 -8.28125,-12.28907 -8.28125,-19.90625 0,-8.41407 2.75781,-15.44532 8.28125,-21.09375 5.51953,-5.65625 12.22266,-8.48438 20.10937,-8.48438 8.40625,0 15.36719,2.82813 20.89063,8.48438 5.51953,5.64843 8.28125,12.67968 8.28125,21.09375 0,7.61718 -2.76172,14.25 -8.28125,19.90625 -5.52344,5.64843 -12.48438,8.46875 -20.89063,8.46875 z m 0,0" />
  <!-- b glyph -->
  <g fill="#0b1215" fill-opacity="1" transform="translate(50,127)" clip-path="url(#li-clip3)">
    <g transform="translate(344.43246,396.15199)">
      <path d="m 26.40625,0 v -283.84375 h 48.5 V 0 Z m 110.39062,6.3125 c -17.34374,0 -33.11718,-4.46875 -47.312495,-13.40625 -14.1875,-8.9375 -25.492187,-21.09375 -33.90625,-36.46875 -8.40625,-15.375 -12.609375,-32.390625 -12.609375,-51.046875 0,-18.925785 4.203125,-36.007815 12.609375,-51.249995 8.414063,-15.23829 19.71875,-27.32813 33.90625,-36.26563 14.195315,-8.9375 29.968755,-13.40625 47.312495,-13.40625 18.13282,0 34.49219,4.46875 49.07813,13.40625 14.58203,8.9375 26.20703,21.02734 34.875,36.26563 8.67578,15.24218 13.01562,32.32421 13.01562,51.249995 0,18.65625 -4.33984,35.671875 -13.01562,51.046875 -8.66797,15.375 -20.29297,27.53125 -34.875,36.46875 C 171.28906,1.84375 154.92969,6.3125 136.79687,6.3125 Z m -7.09375,-46.515625 c 10.25,0 19.50782,-2.429687 27.78125,-7.296875 8.28125,-4.863281 14.85157,-11.367188 19.71875,-19.515625 4.86329,-8.144531 7.29688,-17.34375 7.29688,-27.59375 0,-10.250005 -2.43359,-19.515625 -7.29688,-27.796875 -4.86718,-8.28125 -11.4375,-14.78516 -19.71875,-19.51562 -8.27343,-4.72657 -17.53125,-7.09375 -27.78125,-7.09375 -10.24999,0 -19.51562,2.43359 -27.79687,7.29687 -8.28125,4.86719 -14.855469,11.37109 -19.71875,19.51562 -4.855469,8.14844 -7.28125,17.34375 -7.28125,27.593755 0,9.992187 2.425781,19.125 7.28125,27.40625 4.863281,8.273437 11.4375,14.839844 19.71875,19.703125 8.28125,4.867188 17.54688,7.296875 27.79687,7.296875 z m 0,0" />
    </g>
  </g>
  <!-- right blue dot -->
  <g transform="matrix(1,0,0,1,619,199)">
    <g clip-path="url(#li-clip1)">
      <g fill="#007bff" fill-opacity="1">
        <g transform="translate(0.935851,319.544003)">
          <path d="M 57.734375 5.15625 C 52.359375 5.15625 47.410156 3.757812 42.890625 0.96875 C 38.378906 -1.820312 34.722656 -5.472656 31.921875 -9.984375 C 29.128906 -14.503906 27.734375 -19.457031 27.734375 -24.84375 C 27.734375 -33.4375 30.691406 -40.691406 36.609375 -46.609375 C 42.523438 -52.523438 49.566406 -55.484375 57.734375 -55.484375 C 63.546875 -55.484375 68.707031 -54.082031 73.21875 -51.28125 C 77.738281 -48.488281 81.394531 -44.832031 84.1875 -40.3125 C 86.976562 -35.800781 88.375 -30.644531 88.375 -24.84375 C 88.375 -16.664062 85.414062 -9.617188 79.5 -3.703125 C 73.59375 2.203125 66.335938 5.15625 57.734375 5.15625 Z" />
        </g>
      </g>
    </g>
  </g>
  <!-- left blue dot (i accent) -->
  <g transform="translate(289.15228,4.566782)">
    <g clip-path="url(#li-clip2)">
      <g fill="#007bff" fill-opacity="1">
        <g transform="translate(0.705614,293.52001)">
          <path d="m 57.734375,5.15625 c -5.375,0 -10.324219,-1.398438 -14.84375,-4.1875 -4.511719,-2.789062 -8.167969,-6.441406 -10.96875,-10.953125 -2.792969,-4.519531 -4.1875,-9.46875 -4.1875,-14.84375 0,-8.601563 2.953125,-15.859375 8.859375,-21.765625 5.914062,-5.914062 12.960938,-8.875 21.140625,-8.875 5.800781,0 10.957031,1.398438 15.46875,4.1875 4.519531,2.792969 8.175781,6.449219 10.96875,10.96875 2.800781,4.511719 4.203125,9.671875 4.203125,15.484375 0,8.167969 -2.960938,15.210937 -8.875,21.125 C 73.582031,2.203125 66.328125,5.15625 57.734375,5.15625 Z m 0,0" />
        </g>
      </g>
    </g>
  </g>
</svg>
